<svg width="800" height="800" viewBox="0 0 800 800" xmlns="http://www.w3.org/2000/svg">
    <defs>
        <filter id="glow" x="-50%" y="-50%" width="200%" height="200%">
            <feGaussianBlur stdDeviation="2.5" result="coloredBlur"/>
            <feMerge>
                <feMergeNode in="coloredBlur"/>
                <feMergeNode in="SourceGraphic"/>
            </feMerge>
        </filter>
        <linearGradient id="bg" x1="0%" y1="0%" x2="100%" y2="100%">
            <stop offset="0%" style="stop-color:#0f172a;stop-opacity:1" />
            <stop offset="100%" style="stop-color:#1e293b;stop-opacity:1" />
        </linearGradient>
    </defs>
    <rect width="100%" height="100%" fill="url(#bg)" />
    <g stroke="#10b981">
        <line x1="99" y1="644" x2="124" y2="591" stroke="#10b981" stroke-width="1" stroke-opacity="0.7069982935203278" /><line x1="99" y1="644" x2="132" y2="495" stroke="#10b981" stroke-width="1" stroke-opacity="0.236946921898614" /><line x1="99" y1="644" x2="78" y2="491" stroke="#10b981" stroke-width="1" stroke-opacity="0.227827739425975" /><line x1="99" y1="644" x2="58" y2="734" stroke="#10b981" stroke-width="1" stroke-opacity="0.5055053084208083" /><line x1="99" y1="644" x2="98" y2="511" stroke="#10b981" stroke-width="1" stroke-opacity="0.3349812032731707" /><line x1="99" y1="644" x2="174" y2="467" stroke="#10b981" stroke-width="1" stroke-opacity="0.03882883938395243" /><line x1="99" y1="644" x2="111" y2="494" stroke="#10b981" stroke-width="1" stroke-opacity="0.24760382776093282" /><line x1="99" y1="644" x2="85" y2="744" stroke="#10b981" stroke-width="1" stroke-opacity="0.49512377754542647" /><line x1="320" y1="668" x2="346" y2="580" stroke="#10b981" stroke-width="1" stroke-opacity="0.5411972101218215" /><line x1="320" y1="668" x2="388" y2="724" stroke="#10b981" stroke-width="1" stroke-opacity="0.5595456890890953" /><line x1="320" y1="668" x2="340" y2="561" stroke="#10b981" stroke-width="1" stroke-opacity="0.4557344398182078" /><line x1="320" y1="668" x2="395" y2="708" stroke="#10b981" stroke-width="1" stroke-opacity="0.575" /><line x1="51" y1="432" x2="124" y2="591" stroke="#10b981" stroke-width="1" stroke-opacity="0.12521431195978072" /><line x1="51" y1="432" x2="132" y2="495" stroke="#10b981" stroke-width="1" stroke-opacity="0.48692105870538793" /><line x1="51" y1="432" x2="167" y2="444" stroke="#10b981" stroke-width="1" stroke-opacity="0.41690481051547" /><line x1="51" y1="432" x2="78" y2="491" stroke="#10b981" stroke-width="1" stroke-opacity="0.6755774360498332" /><line x1="51" y1="432" x2="98" y2="511" stroke="#10b981" stroke-width="1" stroke-opacity="0.5403805922287441" /><line x1="51" y1="432" x2="174" y2="467" stroke="#10b981" stroke-width="1" stroke-opacity="0.3605862059667464" /><line x1="51" y1="432" x2="111" y2="494" stroke="#10b981" stroke-width="1" stroke-opacity="0.5686069077975402" /><line x1="51" y1="432" x2="96" y2="238" stroke="#10b981" stroke-width="1" stroke-opacity="0.004246516450984172" /><line x1="51" y1="432" x2="96" y2="386" stroke="#10b981" stroke-width="1" stroke-opacity="0.6782469891360766" /><line x1="609" y1="268" x2="417" y2="294" stroke="#10b981" stroke-width="1" stroke-opacity="0.031237903301331582" /><line x1="609" y1="268" x2="667" y2="367" stroke="#10b981" stroke-width="1" stroke-opacity="0.4263058306030991" /><line x1="609" y1="268" x2="509" y2="239" stroke="#10b981" stroke-width="1" stroke-opacity="0.47939938532498827" /><line x1="609" y1="268" x2="610" y2="238" stroke="#10b981" stroke-width="1" stroke-opacity="0.8499166898019637" /><line x1="609" y1="268" x2="730" y2="284" stroke="#10b981" stroke-width="1" stroke-opacity="0.38973366470040316" /><line x1="609" y1="268" x2="568" y2="342" stroke="#10b981" stroke-width="1" stroke-opacity="0.5770047281588127" /><line x1="609" y1="268" x2="592" y2="121" stroke="#10b981" stroke-width="1" stroke-opacity="0.2601013582929077" /><line x1="609" y1="268" x2="519" y2="226" stroke="#10b981" stroke-width="1" stroke-opacity="0.5034116392825945" /><line x1="609" y1="268" x2="552" y2="171" stroke="#10b981" stroke-width="1" stroke-opacity="0.4374611124553255" /><line x1="609" y1="268" x2="564" y2="225" stroke="#10b981" stroke-width="1" stroke-opacity="0.6887926736080914" /><line x1="609" y1="268" x2="655" y2="83" stroke="#10b981" stroke-width="1" stroke-opacity="0.04683422218377986" /><line x1="609" y1="268" x2="714" y2="118" stroke="#10b981" stroke-width="1" stroke-opacity="0.08450832881997228" /><line x1="609" y1="268" x2="720" y2="336" stroke="#10b981" stroke-width="1" stroke-opacity="0.3491351906885731" /><line x1="609" y1="268" x2="741" y2="273" stroke="#10b981" stroke-width="1" stroke-opacity="0.33952668486910087" /><line x1="609" y1="268" x2="705" y2="174" stroke="#10b981" stroke-width="1" stroke-opacity="0.3282113427572626" /><line x1="609" y1="268" x2="610" y2="445" stroke="#10b981" stroke-width="1" stroke-opacity="0.11498587581892239" /><line x1="417" y1="294" x2="273" y2="329" stroke="#10b981" stroke-width="1" stroke-opacity="0.259037787738133" /><line x1="417" y1="294" x2="509" y2="239" stroke="#10b981" stroke-width="1" stroke-opacity="0.4640662354357583" /><line x1="417" y1="294" x2="352" y2="241" stroke="#10b981" stroke-width="1" stroke-opacity="0.5806552730747649" /><line x1="417" y1="294" x2="568" y2="342" stroke="#10b981" stroke-width="1" stroke-opacity="0.20777212874072648" /><line x1="417" y1="294" x2="519" y2="226" stroke="#10b981" stroke-width="1" stroke-opacity="0.38705628317112184" /><line x1="417" y1="294" x2="552" y2="171" stroke="#10b981" stroke-width="1" stroke-opacity="0.08684612468653452" /><line x1="417" y1="294" x2="281" y2="174" stroke="#10b981" stroke-width="1" stroke-opacity="0.0931372760996293" /><line x1="417" y1="294" x2="564" y2="225" stroke="#10b981" stroke-width="1" stroke-opacity="0.18805788383653843" /><line x1="417" y1="294" x2="397" y2="262" stroke="#10b981" stroke-width="1" stroke-opacity="0.811320377358868" /><line x1="417" y1="294" x2="377" y2="335" stroke="#10b981" stroke-width="1" stroke-opacity="0.7135999301676064" /><line x1="417" y1="294" x2="316" y2="359" stroke="#10b981" stroke-width="1" stroke-opacity="0.3994585776151657" /><line x1="559" y1="731" x2="388" y2="724" stroke="#10b981" stroke-width="1" stroke-opacity="0.14428392559213887" /><line x1="559" y1="731" x2="583" y2="632" stroke="#10b981" stroke-width="1" stroke-opacity="0.49066219460951066" /><line x1="559" y1="731" x2="569" y2="578" stroke="#10b981" stroke-width="1" stroke-opacity="0.2333677543958903" /><line x1="559" y1="731" x2="519" y2="578" stroke="#10b981" stroke-width="1" stroke-opacity="0.20928829526811743" /><line x1="559" y1="731" x2="395" y2="708" stroke="#10b981" stroke-width="1" stroke-opacity="0.1719752419160403" /><line x1="559" y1="731" x2="573" y2="591" stroke="#10b981" stroke-width="1" stroke-opacity="0.2965087065215377" /><line x1="124" y1="591" x2="132" y2="495" stroke="#10b981" stroke-width="1" stroke-opacity="0.5183362168483081" /><line x1="124" y1="591" x2="167" y2="444" stroke="#10b981" stroke-width="1" stroke-opacity="0.23419976495172068" /><line x1="124" y1="591" x2="78" y2="491" stroke="#10b981" stroke-width="1" stroke-opacity="0.44963648376731946" /><line x1="124" y1="591" x2="58" y2="734" stroke="#10b981" stroke-width="1" stroke-opacity="0.21251984151980052" /><line x1="124" y1="591" x2="98" y2="511" stroke="#10b981" stroke-width="1" stroke-opacity="0.5794051831037381" /><line x1="124" y1="591" x2="174" y2="467" stroke="#10b981" stroke-width="1" stroke-opacity="0.33149420346566927" /><line x1="124" y1="591" x2="111" y2="494" stroke="#10b981" stroke-width="1" stroke-opacity="0.5106637148136264" /><line x1="124" y1="591" x2="85" y2="744" stroke="#10b981" stroke-width="1" stroke-opacity="0.21053815798355402" /><line x1="132" y1="495" x2="167" y2="444" stroke="#10b981" stroke-width="1" stroke-opacity="0.6907266581161577" /><line x1="132" y1="495" x2="78" y2="491" stroke="#10b981" stroke-width="1" stroke-opacity="0.7292602725863824" /><line x1="132" y1="495" x2="98" y2="511" stroke="#10b981" stroke-width="1" stroke-opacity="0.8121170577194406" /><line x1="132" y1="495" x2="174" y2="467" stroke="#10b981" stroke-width="1" stroke-opacity="0.7476114107175207" /><line x1="132" y1="495" x2="111" y2="494" stroke="#10b981" stroke-width="1" stroke-opacity="0.8948810197918569" /><line x1="132" y1="495" x2="295" y2="459" stroke="#10b981" stroke-width="1" stroke-opacity="0.16535935876570207" /><line x1="132" y1="495" x2="96" y2="386" stroke="#10b981" stroke-width="1" stroke-opacity="0.42604442680639476" /><line x1="167" y1="444" x2="273" y2="329" stroke="#10b981" stroke-width="1" stroke-opacity="0.2179993606140721" /><line x1="167" y1="444" x2="78" y2="491" stroke="#10b981" stroke-width="1" stroke-opacity="0.4967604943965547" /><line x1="167" y1="444" x2="98" y2="511" stroke="#10b981" stroke-width="1" stroke-opacity="0.5191153984582164" /><line x1="167" y1="444" x2="174" y2="467" stroke="#10b981" stroke-width="1" stroke-opacity="0.879791847198287" /><line x1="167" y1="444" x2="111" y2="494" stroke="#10b981" stroke-width="1" stroke-opacity="0.6246335124175308" /><line x1="167" y1="444" x2="316" y2="359" stroke="#10b981" stroke-width="1" stroke-opacity="0.14229958610246674" /><line x1="167" y1="444" x2="295" y2="459" stroke="#10b981" stroke-width="1" stroke-opacity="0.3556204534592986" /><line x1="167" y1="444" x2="96" y2="386" stroke="#10b981" stroke-width="1" stroke-opacity="0.5416060646125431" /><line x1="691" y1="499" x2="667" y2="367" stroke="#10b981" stroke-width="1" stroke-opacity="0.3291796067500631" /><line x1="691" y1="499" x2="678" y2="469" stroke="#10b981" stroke-width="1" stroke-opacity="0.8365221727572818" /><line x1="691" y1="499" x2="732" y2="525" stroke="#10b981" stroke-width="1" stroke-opacity="0.7572552781212329" /><line x1="691" y1="499" x2="583" y2="632" stroke="#10b981" stroke-width="1" stroke-opacity="0.14336413803763737" /><line x1="691" y1="499" x2="568" y2="342" stroke="#10b981" stroke-width="1" stroke-opacity="0.0027788610343241205" /><line x1="691" y1="499" x2="569" y2="578" stroke="#10b981" stroke-width="1" stroke-opacity="0.2732779073125684" /><line x1="691" y1="499" x2="519" y2="578" stroke="#10b981" stroke-width="1" stroke-opacity="0.05362533846261497" /><line x1="691" y1="499" x2="627" y2="520" stroke="#10b981" stroke-width="1" stroke-opacity="0.6632137176190218" /><line x1="691" y1="499" x2="720" y2="336" stroke="#10b981" stroke-width="1" stroke-opacity="0.17220171539196827" /><line x1="691" y1="499" x2="721" y2="563" stroke="#10b981" stroke-width="1" stroke-opacity="0.6465880590585542" /><line x1="691" y1="499" x2="573" y2="591" stroke="#10b981" stroke-width="1" stroke-opacity="0.25186899542927643" /><line x1="691" y1="499" x2="698" y2="506" stroke="#10b981" stroke-width="1" stroke-opacity="0.9505025253169417" /><line x1="691" y1="499" x2="723" y2="578" stroke="#10b981" stroke-width="1" stroke-opacity="0.5738251532527994" /><line x1="691" y1="499" x2="610" y2="445" stroke="#10b981" stroke-width="1" stroke-opacity="0.5132505778123615" /><line x1="346" y1="580" x2="388" y2="724" stroke="#10b981" stroke-width="1" stroke-opacity="0.25" /><line x1="346" y1="580" x2="340" y2="561" stroke="#10b981" stroke-width="1" stroke-opacity="0.9003757057741436" /><line x1="346" y1="580" x2="519" y2="578" stroke="#10b981" stroke-width="1" stroke-opacity="0.13494219846301603" /><line x1="346" y1="580" x2="395" y2="708" stroke="#10b981" stroke-width="1" stroke-opacity="0.3147080913946233" /><line x1="346" y1="580" x2="295" y2="459" stroke="#10b981" stroke-width="1" stroke-opacity="0.34345601822878624" /><line x1="667" y1="367" x2="678" y2="469" stroke="#10b981" stroke-width="1" stroke-opacity="0.4870428867829202" /><line x1="667" y1="367" x2="732" y2="525" stroke="#10b981" stroke-width="1" stroke-opacity="0.14576057220472438" /><line x1="667" y1="367" x2="610" y2="238" stroke="#10b981" stroke-width="1" stroke-opacity="0.29484044358741046" /><line x1="667" y1="367" x2="730" y2="284" stroke="#10b981" stroke-width="1" stroke-opacity="0.47899136283550925" /><line x1="667" y1="367" x2="568" y2="342" stroke="#10b981" stroke-width="1" stroke-opacity="0.48946106906524744" /><line x1="667" y1="367" x2="564" y2="225" stroke="#10b981" stroke-width="1" stroke-opacity="0.12288826253435647" /><line x1="667" y1="367" x2="627" y2="520" stroke="#10b981" stroke-width="1" stroke-opacity="0.20928829526811743" /><line x1="667" y1="367" x2="720" y2="336" stroke="#10b981" stroke-width="1" stroke-opacity="0.6929983713398249" /><line x1="667" y1="367" x2="741" y2="273" stroke="#10b981" stroke-width="1" stroke-opacity="0.40183614285047276" /><line x1="667" y1="367" x2="698" y2="506" stroke="#10b981" stroke-width="1" stroke-opacity="0.28792556568853" /><line x1="667" y1="367" x2="705" y2="174" stroke="#10b981" stroke-width="1" stroke-opacity="0.016473182877050352" /><line x1="667" y1="367" x2="610" y2="445" stroke="#10b981" stroke-width="1" stroke-opacity="0.5169627343568615" /><line x1="496" y1="101" x2="509" y2="239" stroke="#10b981" stroke-width="1" stroke-opacity="0.30694516811438366" /><line x1="496" y1="101" x2="308" y2="115" stroke="#10b981" stroke-width="1" stroke-opacity="0.057397220458161424" /><line x1="496" y1="101" x2="353" y2="95" stroke="#10b981" stroke-width="1" stroke-opacity="0.28437090612524696" /><line x1="496" y1="101" x2="516" y2="79" stroke="#10b981" stroke-width="1" stroke-opacity="0.8513393125268149" /><line x1="496" y1="101" x2="610" y2="238" stroke="#10b981" stroke-width="1" stroke-opacity="0.10886308571578074" /><line x1="496" y1="101" x2="592" y2="121" stroke="#10b981" stroke-width="1" stroke-opacity="0.5096939731147495" /><line x1="496" y1="101" x2="519" y2="226" stroke="#10b981" stroke-width="1" stroke-opacity="0.3645080645672991" /><line x1="496" y1="101" x2="552" y2="171" stroke="#10b981" stroke-width="1" stroke-opacity="0.5517813033797005" /><line x1="496" y1="101" x2="564" y2="225" stroke="#10b981" stroke-width="1" stroke-opacity="0.2928932188134524" /><line x1="496" y1="101" x2="655" y2="83" stroke="#10b981" stroke-width="1" stroke-opacity="0.19992187881432466" /><line x1="496" y1="101" x2="397" y2="262" stroke="#10b981" stroke-width="1" stroke-opacity="0.05498677257934648" /><line x1="273" y1="329" x2="352" y2="241" stroke="#10b981" stroke-width="1" stroke-opacity="0.4087090394737968" /><line x1="273" y1="329" x2="229" y2="188" stroke="#10b981" stroke-width="1" stroke-opacity="0.2614710567621604" /><line x1="273" y1="329" x2="174" y2="467" stroke="#10b981" stroke-width="1" stroke-opacity="0.1508092087169104" /><line x1="273" y1="329" x2="281" y2="174" stroke="#10b981" stroke-width="1" stroke-opacity="0.22396842847729448" /><line x1="273" y1="329" x2="397" y2="262" stroke="#10b981" stroke-width="1" stroke-opacity="0.29528374504343946" /><line x1="273" y1="329" x2="377" y2="335" stroke="#10b981" stroke-width="1" stroke-opacity="0.47913533427578325" /><line x1="273" y1="329" x2="316" y2="359" stroke="#10b981" stroke-width="1" stroke-opacity="0.7378454654216334" /><line x1="273" y1="329" x2="96" y2="238" stroke="#10b981" stroke-width="1" stroke-opacity="0.0048869410966410065" /><line x1="273" y1="329" x2="295" y2="459" stroke="#10b981" stroke-width="1" stroke-opacity="0.34075801104601966" /><line x1="273" y1="329" x2="96" y2="386" stroke="#10b981" stroke-width="1" stroke-opacity="0.07024196696129592" /><line x1="78" y1="491" x2="98" y2="511" stroke="#10b981" stroke-width="1" stroke-opacity="0.8585786437626906" /><line x1="78" y1="491" x2="174" y2="467" stroke="#10b981" stroke-width="1" stroke-opacity="0.5052273249258807" /><line x1="78" y1="491" x2="111" y2="494" stroke="#10b981" stroke-width="1" stroke-opacity="0.8343195847421911" /><line x1="78" y1="491" x2="96" y2="386" stroke="#10b981" stroke-width="1" stroke-opacity="0.4673415728630589" /><line x1="678" y1="469" x2="732" y2="525" stroke="#10b981" stroke-width="1" stroke-opacity="0.6110269932244655" /><line x1="678" y1="469" x2="583" y2="632" stroke="#10b981" stroke-width="1" stroke-opacity="0.056681389985334785" /><line x1="678" y1="469" x2="730" y2="284" stroke="#10b981" stroke-width="1" stroke-opacity="0.039154018585704886" /><line x1="678" y1="469" x2="568" y2="342" stroke="#10b981" stroke-width="1" stroke-opacity="0.1599255985330824" /><line x1="678" y1="469" x2="569" y2="578" stroke="#10b981" stroke-width="1" stroke-opacity="0.2292536085066632" /><line x1="678" y1="469" x2="519" y2="578" stroke="#10b981" stroke-width="1" stroke-opacity="0.03612760180613117" /><line x1="678" y1="469" x2="627" y2="520" stroke="#10b981" stroke-width="1" stroke-opacity="0.6393755415948608" /><line x1="678" y1="469" x2="720" y2="336" stroke="#10b981" stroke-width="1" stroke-opacity="0.30262994041900537" /><line x1="678" y1="469" x2="721" y2="563" stroke="#10b981" stroke-width="1" stroke-opacity="0.4831586316866654" /><line x1="678" y1="469" x2="573" y2="591" stroke="#10b981" stroke-width="1" stroke-opacity="0.19518635697448572" /><line x1="678" y1="469" x2="698" y2="506" stroke="#10b981" stroke-width="1" stroke-opacity="0.7897025915518691" /><line x1="678" y1="469" x2="723" y2="578" stroke="#10b981" stroke-width="1" stroke-opacity="0.4103814792596827" /><line x1="678" y1="469" x2="610" y2="445" stroke="#10b981" stroke-width="1" stroke-opacity="0.639444872453601" /><line x1="509" y1="239" x2="516" y2="79" stroke="#10b981" stroke-width="1" stroke-opacity="0.19923474101332284" /><line x1="509" y1="239" x2="610" y2="238" stroke="#10b981" stroke-width="1" stroke-opacity="0.4949752481313415" /><line x1="509" y1="239" x2="352" y2="241" stroke="#10b981" stroke-width="1" stroke-opacity="0.21493630831632515" /><line x1="509" y1="239" x2="568" y2="342" stroke="#10b981" stroke-width="1" stroke-opacity="0.40649347097104316" /><line x1="509" y1="239" x2="592" y2="121" stroke="#10b981" stroke-width="1" stroke-opacity="0.27866443315194833" /><line x1="509" y1="239" x2="519" y2="226" stroke="#10b981" stroke-width="1" stroke-opacity="0.9179939026657163" /><line x1="509" y1="239" x2="552" y2="171" stroke="#10b981" stroke-width="1" stroke-opacity="0.5977252182897864" /><line x1="509" y1="239" x2="564" y2="225" stroke="#10b981" stroke-width="1" stroke-opacity="0.7162307275267458" /><line x1="509" y1="239" x2="397" y2="262" stroke="#10b981" stroke-width="1" stroke-opacity="0.4283138973177676" /><line x1="509" y1="239" x2="377" y2="335" stroke="#10b981" stroke-width="1" stroke-opacity="0.1839117694758734" /><line x1="388" y1="724" x2="340" y2="561" stroke="#10b981" stroke-width="1" stroke-opacity="0.15039715160552813" /><line x1="388" y1="724" x2="519" y2="578" stroke="#10b981" stroke-width="1" stroke-opacity="0.019222247397505443" /><line x1="388" y1="724" x2="395" y2="708" stroke="#10b981" stroke-width="1" stroke-opacity="0.912678754017135" /><line x1="308" y1="115" x2="353" y2="95" stroke="#10b981" stroke-width="1" stroke-opacity="0.7537785549550974" /><line x1="308" y1="115" x2="352" y2="241" stroke="#10b981" stroke-width="1" stroke-opacity="0.3326919751718852" /><line x1="308" y1="115" x2="229" y2="188" stroke="#10b981" stroke-width="1" stroke-opacity="0.46218032761900574" /><line x1="308" y1="115" x2="281" y2="174" stroke="#10b981" stroke-width="1" stroke-opacity="0.6755774360498332" /><line x1="308" y1="115" x2="397" y2="262" stroke="#10b981" stroke-width="1" stroke-opacity="0.1407852422124024" /><line x1="308" y1="115" x2="146" y2="143" stroke="#10b981" stroke-width="1" stroke-opacity="0.1779902676975169" /><line x1="353" y1="95" x2="516" y2="79" stroke="#10b981" stroke-width="1" stroke-opacity="0.18108303229203992" /><line x1="353" y1="95" x2="352" y2="241" stroke="#10b981" stroke-width="1" stroke-opacity="0.2699828769131507" /><line x1="353" y1="95" x2="229" y2="188" stroke="#10b981" stroke-width="1" stroke-opacity="0.22499999999999998" /><line x1="353" y1="95" x2="281" y2="174" stroke="#10b981" stroke-width="1" stroke-opacity="0.4655610418392012" /><line x1="353" y1="95" x2="397" y2="262" stroke="#10b981" stroke-width="1" stroke-opacity="0.13650419804147274" /><line x1="732" y1="525" x2="583" y2="632" stroke="#10b981" stroke-width="1" stroke-opacity="0.08280318360779293" /><line x1="732" y1="525" x2="569" y2="578" stroke="#10b981" stroke-width="1" stroke-opacity="0.1429994165696269" /><line x1="732" y1="525" x2="627" y2="520" stroke="#10b981" stroke-width="1" stroke-opacity="0.47440509895928407" /><line x1="732" y1="525" x2="720" y2="336" stroke="#10b981" stroke-width="1" stroke-opacity="0.053097153874802294" /><line x1="732" y1="525" x2="721" y2="563" stroke="#10b981" stroke-width="1" stroke-opacity="0.8021995955514751" /><line x1="732" y1="525" x2="573" y2="591" stroke="#10b981" stroke-width="1" stroke-opacity="0.13922999587578555" /><line x1="732" y1="525" x2="698" y2="506" stroke="#10b981" stroke-width="1" stroke-opacity="0.8052565790584956" /><line x1="732" y1="525" x2="723" y2="578" stroke="#10b981" stroke-width="1" stroke-opacity="0.7312063988856877" /><line x1="732" y1="525" x2="610" y2="445" stroke="#10b981" stroke-width="1" stroke-opacity="0.27054815100652463" /><line x1="516" y1="79" x2="610" y2="238" stroke="#10b981" stroke-width="1" stroke-opacity="0.07646061264286075" /><line x1="516" y1="79" x2="592" y2="121" stroke="#10b981" stroke-width="1" stroke-opacity="0.5658341330781518" /><line x1="516" y1="79" x2="519" y2="226" stroke="#10b981" stroke-width="1" stroke-opacity="0.2648469547094292" /><line x1="516" y1="79" x2="552" y2="171" stroke="#10b981" stroke-width="1" stroke-opacity="0.5060364385908613" /><line x1="516" y1="79" x2="564" y2="225" stroke="#10b981" stroke-width="1" stroke-opacity="0.23156002186247493" /><line x1="516" y1="79" x2="655" y2="83" stroke="#10b981" stroke-width="1" stroke-opacity="0.3047122897677538" /><line x1="583" y1="632" x2="569" y2="578" stroke="#10b981" stroke-width="1" stroke-opacity="0.7210734863803729" /><line x1="583" y1="632" x2="519" y2="578" stroke="#10b981" stroke-width="1" stroke-opacity="0.5813115716908336" /><line x1="583" y1="632" x2="627" y2="520" stroke="#10b981" stroke-width="1" stroke-opacity="0.3983356417403471" /><line x1="583" y1="632" x2="721" y2="563" stroke="#10b981" stroke-width="1" stroke-opacity="0.2285565477625725" /><line x1="583" y1="632" x2="573" y2="591" stroke="#10b981" stroke-width="1" stroke-opacity="0.7889905215399081" /><line x1="583" y1="632" x2="698" y2="506" stroke="#10b981" stroke-width="1" stroke-opacity="0.1470492394047591" /><line x1="583" y1="632" x2="723" y2="578" stroke="#10b981" stroke-width="1" stroke-opacity="0.24973338072389228" /><line x1="583" y1="632" x2="610" y2="445" stroke="#10b981" stroke-width="1" stroke-opacity="0.055304281792279975" /><line x1="610" y1="238" x2="730" y2="284" stroke="#10b981" stroke-width="1" stroke-opacity="0.3574270469433063" /><line x1="610" y1="238" x2="568" y2="342" stroke="#10b981" stroke-width="1" stroke-opacity="0.4391970042876019" /><line x1="610" y1="238" x2="592" y2="121" stroke="#10b981" stroke-width="1" stroke-opacity="0.40811741029153425" /><line x1="610" y1="238" x2="519" y2="226" stroke="#10b981" stroke-width="1" stroke-opacity="0.5410610062328545" /><line x1="610" y1="238" x2="552" y2="171" stroke="#10b981" stroke-width="1" stroke-opacity="0.5569142295220936" /><line x1="610" y1="238" x2="564" y2="225" stroke="#10b981" stroke-width="1" stroke-opacity="0.7609916319456576" /><line x1="610" y1="238" x2="655" y2="83" stroke="#10b981" stroke-width="1" stroke-opacity="0.1929993804215513" /><line x1="610" y1="238" x2="714" y2="118" stroke="#10b981" stroke-width="1" stroke-opacity="0.2060226703488317" /><line x1="610" y1="238" x2="720" y2="336" stroke="#10b981" stroke-width="1" stroke-opacity="0.2633861255718841" /><line x1="610" y1="238" x2="741" y2="273" stroke="#10b981" stroke-width="1" stroke-opacity="0.3220250742099675" /><line x1="610" y1="238" x2="705" y2="174" stroke="#10b981" stroke-width="1" stroke-opacity="0.4272653319380779" /><line x1="58" y1="734" x2="85" y2="744" stroke="#10b981" stroke-width="1" stroke-opacity="0.8560381995111204" /><line x1="352" y1="241" x2="229" y2="188" stroke="#10b981" stroke-width="1" stroke-opacity="0.33033590509868305" /><line x1="352" y1="241" x2="519" y2="226" stroke="#10b981" stroke-width="1" stroke-opacity="0.16163850279250058" /><line x1="352" y1="241" x2="281" y2="174" stroke="#10b981" stroke-width="1" stroke-opacity="0.5118914055253687" /><line x1="352" y1="241" x2="397" y2="262" stroke="#10b981" stroke-width="1" stroke-opacity="0.7517058196412972" /><line x1="352" y1="241" x2="377" y2="335" stroke="#10b981" stroke-width="1" stroke-opacity="0.5136616404189362" /><line x1="352" y1="241" x2="316" y2="359" stroke="#10b981" stroke-width="1" stroke-opacity="0.3831531794683546" /><line x1="730" y1="284" x2="568" y2="342" stroke="#10b981" stroke-width="1" stroke-opacity="0.13965123351050235" /><line x1="730" y1="284" x2="564" y2="225" stroke="#10b981" stroke-width="1" stroke-opacity="0.1191339488889358" /><line x1="730" y1="284" x2="714" y2="118" stroke="#10b981" stroke-width="1" stroke-opacity="0.16615349134268131" /><line x1="730" y1="284" x2="720" y2="336" stroke="#10b981" stroke-width="1" stroke-opacity="0.7352359541025255" /><line x1="730" y1="284" x2="741" y2="273" stroke="#10b981" stroke-width="1" stroke-opacity="0.9222182540694798" /><line x1="730" y1="284" x2="705" y2="174" stroke="#10b981" stroke-width="1" stroke-opacity="0.4359742913660761" /><line x1="229" y1="188" x2="281" y2="174" stroke="#10b981" stroke-width="1" stroke-opacity="0.7307417596432748" /><line x1="229" y1="188" x2="397" y2="262" stroke="#10b981" stroke-width="1" stroke-opacity="0.08212201246570894" /><line x1="229" y1="188" x2="316" y2="359" stroke="#10b981" stroke-width="1" stroke-opacity="0.04070338268083107" /><line x1="229" y1="188" x2="96" y2="238" stroke="#10b981" stroke-width="1" stroke-opacity="0.28955999549574907" /><line x1="229" y1="188" x2="146" y2="143" stroke="#10b981" stroke-width="1" stroke-opacity="0.5279300899231132" /><line x1="98" y1="511" x2="174" y2="467" stroke="#10b981" stroke-width="1" stroke-opacity="0.5609100319979969" /><line x1="98" y1="511" x2="111" y2="494" stroke="#10b981" stroke-width="1" stroke-opacity="0.8929953272048365" /><line x1="98" y1="511" x2="96" y2="386" stroke="#10b981" stroke-width="1" stroke-opacity="0.37492000511934476" /><line x1="174" y1="467" x2="340" y2="561" stroke="#10b981" stroke-width="1" stroke-opacity="0.04616563282716646" /><line x1="174" y1="467" x2="111" y2="494" stroke="#10b981" stroke-width="1" stroke-opacity="0.6572902102361241" /><line x1="174" y1="467" x2="316" y2="359" stroke="#10b981" stroke-width="1" stroke-opacity="0.10797982085605251" /><line x1="174" y1="467" x2="295" y2="459" stroke="#10b981" stroke-width="1" stroke-opacity="0.39367912785390613" /><line x1="174" y1="467" x2="96" y2="386" stroke="#10b981" stroke-width="1" stroke-opacity="0.4377500555802607" /><line x1="340" y1="561" x2="519" y2="578" stroke="#10b981" stroke-width="1" stroke-opacity="0.100972747910276" /><line x1="340" y1="561" x2="395" y2="708" stroke="#10b981" stroke-width="1" stroke-opacity="0.21523888985245965" /><line x1="340" y1="561" x2="295" y2="459" stroke="#10b981" stroke-width="1" stroke-opacity="0.44257287471813855" /><line x1="568" y1="342" x2="519" y2="226" stroke="#10b981" stroke-width="1" stroke-opacity="0.3703770969858228" /><line x1="568" y1="342" x2="552" y2="171" stroke="#10b981" stroke-width="1" stroke-opacity="0.1412654659325736" /><line x1="568" y1="342" x2="564" y2="225" stroke="#10b981" stroke-width="1" stroke-opacity="0.4146582194990691" /><line x1="568" y1="342" x2="627" y2="520" stroke="#10b981" stroke-width="1" stroke-opacity="0.062383340591689374" /><line x1="568" y1="342" x2="397" y2="262" stroke="#10b981" stroke-width="1" stroke-opacity="0.05605879420379156" /><line x1="568" y1="342" x2="377" y2="335" stroke="#10b981" stroke-width="1" stroke-opacity="0.04435885396243011" /><line x1="568" y1="342" x2="720" y2="336" stroke="#10b981" stroke-width="1" stroke-opacity="0.23940812520774335" /><line x1="568" y1="342" x2="741" y2="273" stroke="#10b981" stroke-width="1" stroke-opacity="0.06873741619240392" /><line x1="568" y1="342" x2="610" y2="445" stroke="#10b981" stroke-width="1" stroke-opacity="0.4438300619414961" /><line x1="592" y1="121" x2="519" y2="226" stroke="#10b981" stroke-width="1" stroke-opacity="0.3605862059667464" /><line x1="592" y1="121" x2="552" y2="171" stroke="#10b981" stroke-width="1" stroke-opacity="0.6798437881283576" /><line x1="592" y1="121" x2="564" y2="225" stroke="#10b981" stroke-width="1" stroke-opacity="0.4614835192865496" /><line x1="592" y1="121" x2="655" y2="83" stroke="#10b981" stroke-width="1" stroke-opacity="0.6321345354616719" /><line x1="592" y1="121" x2="714" y2="118" stroke="#10b981" stroke-width="1" stroke-opacity="0.3898156016416021" /><line x1="592" y1="121" x2="705" y2="174" stroke="#10b981" stroke-width="1" stroke-opacity="0.37594070794515044" /><line x1="111" y1="494" x2="295" y2="459" stroke="#10b981" stroke-width="1" stroke-opacity="0.06350387080351483" /><line x1="111" y1="494" x2="96" y2="386" stroke="#10b981" stroke-width="1" stroke-opacity="0.4548165446384126" /><line x1="519" y1="226" x2="552" y2="171" stroke="#10b981" stroke-width="1" stroke-opacity="0.6792976457835085" /><line x1="519" y1="226" x2="564" y2="225" stroke="#10b981" stroke-width="1" stroke-opacity="0.7749444513014621" /><line x1="519" y1="226" x2="655" y2="83" stroke="#10b981" stroke-width="1" stroke-opacity="0.01327562105722746" /><line x1="519" y1="226" x2="397" y2="262" stroke="#10b981" stroke-width="1" stroke-opacity="0.3639968553536862" /><line x1="519" y1="226" x2="377" y2="335" stroke="#10b981" stroke-width="1" stroke-opacity="0.1049441358216795" /><line x1="519" y1="226" x2="705" y2="174" stroke="#10b981" stroke-width="1" stroke-opacity="0.034339604208601715" /><line x1="552" y1="171" x2="564" y2="225" stroke="#10b981" stroke-width="1" stroke-opacity="0.7234136662812134" /><line x1="552" y1="171" x2="655" y2="83" stroke="#10b981" stroke-width="1" stroke-opacity="0.3226337770452382" /><line x1="552" y1="171" x2="714" y2="118" stroke="#10b981" stroke-width="1" stroke-opacity="0.1477529700843775" /><line x1="552" y1="171" x2="397" y2="262" stroke="#10b981" stroke-width="1" stroke-opacity="0.10130650386241258" /><line x1="552" y1="171" x2="705" y2="174" stroke="#10b981" stroke-width="1" stroke-opacity="0.23485295530858907" /><line x1="569" y1="578" x2="519" y2="578" stroke="#10b981" stroke-width="1" stroke-opacity="0.75" /><line x1="569" y1="578" x2="627" y2="520" stroke="#10b981" stroke-width="1" stroke-opacity="0.5898780669118024" /><line x1="569" y1="578" x2="721" y2="563" stroke="#10b981" stroke-width="1" stroke-opacity="0.23630830828141125" /><line x1="569" y1="578" x2="573" y2="591" stroke="#10b981" stroke-width="1" stroke-opacity="0.9319926474563228" /><line x1="569" y1="578" x2="698" y2="506" stroke="#10b981" stroke-width="1" stroke-opacity="0.26133566486529214" /><line x1="569" y1="578" x2="723" y2="578" stroke="#10b981" stroke-width="1" stroke-opacity="0.22999999999999998" /><line x1="569" y1="578" x2="610" y2="445" stroke="#10b981" stroke-width="1" stroke-opacity="0.30411926309172765" /><line x1="281" y1="174" x2="397" y2="262" stroke="#10b981" stroke-width="1" stroke-opacity="0.2719890110719482" /><line x1="281" y1="174" x2="377" y2="335" stroke="#10b981" stroke-width="1" stroke-opacity="0.06275670181110382" /><line x1="281" y1="174" x2="316" y2="359" stroke="#10b981" stroke-width="1" stroke-opacity="0.058591480811863494" /><line x1="281" y1="174" x2="96" y2="238" stroke="#10b981" stroke-width="1" stroke-opacity="0.021212484754734917" /><line x1="281" y1="174" x2="146" y2="143" stroke="#10b981" stroke-width="1" stroke-opacity="0.3074323137772019" /><line x1="519" y1="578" x2="627" y2="520" stroke="#10b981" stroke-width="1" stroke-opacity="0.38705628317112184" /><line x1="519" y1="578" x2="395" y2="708" stroke="#10b981" stroke-width="1" stroke-opacity="0.10172387318820497" /><line x1="519" y1="578" x2="573" y2="591" stroke="#10b981" stroke-width="1" stroke-opacity="0.7222861184600238" /><line x1="519" y1="578" x2="698" y2="506" stroke="#10b981" stroke-width="1" stroke-opacity="0.03531093092126314" /><line x1="519" y1="578" x2="610" y2="445" stroke="#10b981" stroke-width="1" stroke-opacity="0.19423948967450633" /><line x1="564" y1="225" x2="655" y2="83" stroke="#10b981" stroke-width="1" stroke-opacity="0.1567177222305689" /><line x1="564" y1="225" x2="714" y2="118" stroke="#10b981" stroke-width="1" stroke-opacity="0.0787372795993534" /><line x1="564" y1="225" x2="397" y2="262" stroke="#10b981" stroke-width="1" stroke-opacity="0.14475149810128285" /><line x1="564" y1="225" x2="720" y2="336" stroke="#10b981" stroke-width="1" stroke-opacity="0.042699106863469005" /><line x1="564" y1="225" x2="741" y2="273" stroke="#10b981" stroke-width="1" stroke-opacity="0.08303489706532441" /><line x1="564" y1="225" x2="705" y2="174" stroke="#10b981" stroke-width="1" stroke-opacity="0.25030006002401195" /><line x1="627" y1="520" x2="721" y2="563" stroke="#10b981" stroke-width="1" stroke-opacity="0.4831586316866654" /><line x1="627" y1="520" x2="573" y2="591" stroke="#10b981" stroke-width="1" stroke-opacity="0.5539899104280263" /><line x1="627" y1="520" x2="698" y2="506" stroke="#10b981" stroke-width="1" stroke-opacity="0.6381644019723876" /><line x1="627" y1="520" x2="723" y2="578" stroke="#10b981" stroke-width="1" stroke-opacity="0.4391970042876019" /><line x1="627" y1="520" x2="610" y2="445" stroke="#10b981" stroke-width="1" stroke-opacity="0.6154873214053924" /><line x1="655" y1="83" x2="714" y2="118" stroke="#10b981" stroke-width="1" stroke-opacity="0.65699854227715" /><line x1="655" y1="83" x2="705" y2="174" stroke="#10b981" stroke-width="1" stroke-opacity="0.4808420278951694" /><line x1="714" y1="118" x2="741" y2="273" stroke="#10b981" stroke-width="1" stroke-opacity="0.21332980226781184" /><line x1="714" y1="118" x2="705" y2="174" stroke="#10b981" stroke-width="1" stroke-opacity="0.7164069817502554" /><line x1="397" y1="262" x2="377" y2="335" stroke="#10b981" stroke-width="1" stroke-opacity="0.6215492105966748" /><line x1="397" y1="262" x2="316" y2="359" stroke="#10b981" stroke-width="1" stroke-opacity="0.36813767322303503" /><line x1="377" y1="335" x2="316" y2="359" stroke="#10b981" stroke-width="1" stroke-opacity="0.6722424676685523" /><line x1="377" y1="335" x2="295" y2="459" stroke="#10b981" stroke-width="1" stroke-opacity="0.2566965626340747" /><line x1="316" y1="359" x2="295" y2="459" stroke="#10b981" stroke-width="1" stroke-opacity="0.4890939420989412" /><line x1="96" y1="238" x2="146" y2="143" stroke="#10b981" stroke-width="1" stroke-opacity="0.46322723616040273" /><line x1="96" y1="238" x2="96" y2="386" stroke="#10b981" stroke-width="1" stroke-opacity="0.26" /><line x1="720" y1="336" x2="741" y2="273" stroke="#10b981" stroke-width="1" stroke-opacity="0.6679608456823202" /><line x1="720" y1="336" x2="698" y2="506" stroke="#10b981" stroke-width="1" stroke-opacity="0.1429119065113552" /><line x1="720" y1="336" x2="705" y2="174" stroke="#10b981" stroke-width="1" stroke-opacity="0.18653518822262516" /><line x1="720" y1="336" x2="610" y2="445" stroke="#10b981" stroke-width="1" stroke-opacity="0.22571000264758678" /><line x1="721" y1="563" x2="573" y2="591" stroke="#10b981" stroke-width="1" stroke-opacity="0.2468731846494907" /><line x1="721" y1="563" x2="698" y2="506" stroke="#10b981" stroke-width="1" stroke-opacity="0.6926728127874138" /><line x1="721" y1="563" x2="723" y2="578" stroke="#10b981" stroke-width="1" stroke-opacity="0.9243362702478922" /><line x1="721" y1="563" x2="610" y2="445" stroke="#10b981" stroke-width="1" stroke-opacity="0.1899845680482377" /><line x1="741" y1="273" x2="705" y2="174" stroke="#10b981" stroke-width="1" stroke-opacity="0.4732885040176168" /><line x1="573" y1="591" x2="698" y2="506" stroke="#10b981" stroke-width="1" stroke-opacity="0.24418917710845134" /><line x1="573" y1="591" x2="723" y2="578" stroke="#10b981" stroke-width="1" stroke-opacity="0.24718860263675613" /><line x1="573" y1="591" x2="610" y2="445" stroke="#10b981" stroke-width="1" stroke-opacity="0.24692297870669289" /><line x1="698" y1="506" x2="723" y2="578" stroke="#10b981" stroke-width="1" stroke-opacity="0.6189160197541754" /><line x1="698" y1="506" x2="610" y2="445" stroke="#10b981" stroke-width="1" stroke-opacity="0.46462629874077677" /><line x1="723" y1="578" x2="610" y2="445" stroke="#10b981" stroke-width="1" stroke-opacity="0.12738897554523176" />
    </g>
    <g>
        <circle cx="99" cy="644" r="3" fill="#deff9a" filter="url(#glow)" /><circle cx="320" cy="668" r="2" fill="#deff9a" filter="url(#glow)" /><circle cx="51" cy="432" r="4" fill="#deff9a" filter="url(#glow)" /><circle cx="609" cy="268" r="5" fill="#deff9a" filter="url(#glow)" /><circle cx="417" cy="294" r="2" fill="#deff9a" filter="url(#glow)" /><circle cx="559" cy="731" r="5" fill="#deff9a" filter="url(#glow)" /><circle cx="124" cy="591" r="4" fill="#deff9a" filter="url(#glow)" /><circle cx="132" cy="495" r="3" fill="#deff9a" filter="url(#glow)" /><circle cx="167" cy="444" r="4" fill="#deff9a" filter="url(#glow)" /><circle cx="691" cy="499" r="3" fill="#deff9a" filter="url(#glow)" /><circle cx="346" cy="580" r="5" fill="#deff9a" filter="url(#glow)" /><circle cx="667" cy="367" r="2" fill="#deff9a" filter="url(#glow)" /><circle cx="496" cy="101" r="4" fill="#deff9a" filter="url(#glow)" /><circle cx="273" cy="329" r="2" fill="#deff9a" filter="url(#glow)" /><circle cx="78" cy="491" r="2" fill="#deff9a" filter="url(#glow)" /><circle cx="678" cy="469" r="2" fill="#deff9a" filter="url(#glow)" /><circle cx="509" cy="239" r="5" fill="#deff9a" filter="url(#glow)" /><circle cx="388" cy="724" r="4" fill="#deff9a" filter="url(#glow)" /><circle cx="308" cy="115" r="2" fill="#deff9a" filter="url(#glow)" /><circle cx="353" cy="95" r="5" fill="#deff9a" filter="url(#glow)" /><circle cx="732" cy="525" r="2" fill="#deff9a" filter="url(#glow)" /><circle cx="516" cy="79" r="3" fill="#deff9a" filter="url(#glow)" /><circle cx="583" cy="632" r="3" fill="#deff9a" filter="url(#glow)" /><circle cx="610" cy="238" r="4" fill="#deff9a" filter="url(#glow)" /><circle cx="58" cy="734" r="3" fill="#deff9a" filter="url(#glow)" /><circle cx="352" cy="241" r="4" fill="#deff9a" filter="url(#glow)" /><circle cx="730" cy="284" r="4" fill="#deff9a" filter="url(#glow)" /><circle cx="229" cy="188" r="5" fill="#deff9a" filter="url(#glow)" /><circle cx="98" cy="511" r="4" fill="#deff9a" filter="url(#glow)" /><circle cx="174" cy="467" r="3" fill="#deff9a" filter="url(#glow)" /><circle cx="340" cy="561" r="2" fill="#deff9a" filter="url(#glow)" /><circle cx="568" cy="342" r="5" fill="#deff9a" filter="url(#glow)" /><circle cx="592" cy="121" r="4" fill="#deff9a" filter="url(#glow)" /><circle cx="111" cy="494" r="2" fill="#deff9a" filter="url(#glow)" /><circle cx="519" cy="226" r="5" fill="#deff9a" filter="url(#glow)" /><circle cx="552" cy="171" r="5" fill="#deff9a" filter="url(#glow)" /><circle cx="569" cy="578" r="2" fill="#deff9a" filter="url(#glow)" /><circle cx="281" cy="174" r="2" fill="#deff9a" filter="url(#glow)" /><circle cx="519" cy="578" r="4" fill="#deff9a" filter="url(#glow)" /><circle cx="564" cy="225" r="5" fill="#deff9a" filter="url(#glow)" /><circle cx="627" cy="520" r="2" fill="#deff9a" filter="url(#glow)" /><circle cx="655" cy="83" r="2" fill="#deff9a" filter="url(#glow)" /><circle cx="714" cy="118" r="3" fill="#deff9a" filter="url(#glow)" /><circle cx="397" cy="262" r="4" fill="#deff9a" filter="url(#glow)" /><circle cx="395" cy="708" r="3" fill="#deff9a" filter="url(#glow)" /><circle cx="377" cy="335" r="2" fill="#deff9a" filter="url(#glow)" /><circle cx="316" cy="359" r="3" fill="#deff9a" filter="url(#glow)" /><circle cx="96" cy="238" r="2" fill="#deff9a" filter="url(#glow)" /><circle cx="720" cy="336" r="5" fill="#deff9a" filter="url(#glow)" /><circle cx="721" cy="563" r="5" fill="#deff9a" filter="url(#glow)" /><circle cx="741" cy="273" r="4" fill="#deff9a" filter="url(#glow)" /><circle cx="573" cy="591" r="3" fill="#deff9a" filter="url(#glow)" /><circle cx="698" cy="506" r="4" fill="#deff9a" filter="url(#glow)" /><circle cx="146" cy="143" r="5" fill="#deff9a" filter="url(#glow)" /><circle cx="85" cy="744" r="2" fill="#deff9a" filter="url(#glow)" /><circle cx="705" cy="174" r="4" fill="#deff9a" filter="url(#glow)" /><circle cx="295" cy="459" r="3" fill="#deff9a" filter="url(#glow)" /><circle cx="723" cy="578" r="3" fill="#deff9a" filter="url(#glow)" /><circle cx="96" cy="386" r="2" fill="#deff9a" filter="url(#glow)" /><circle cx="610" cy="445" r="4" fill="#deff9a" filter="url(#glow)" />
    </g>
</svg>